<svg width="1436" height="1104" viewBox="0 0 1436 1104" fill="none" xmlns="http://www.w3.org/2000/svg">
<g clip-path="url(#clip0_40_232)">
<g style="mix-blend-mode:lighten">
<path fill-rule="evenodd" clip-rule="evenodd" d="M582.105 75.2755L584.354 76.5069C584.405 76.5348 584.447 76.5756 584.476 76.6252C584.505 76.6748 584.521 76.7313 584.521 76.7889C584.521 76.8465 584.505 76.903 584.476 76.9526C584.447 77.0022 584.405 77.043 584.354 77.0708L582.105 78.3031C582.051 78.3328 582.007 78.377 581.977 78.4306L580.747 80.6827C580.719 80.7333 580.679 80.7756 580.629 80.8051C580.579 80.8345 580.523 80.85 580.465 80.85C580.408 80.85 580.351 80.8345 580.302 80.8051C580.252 80.7756 580.211 80.7333 580.184 80.6827L578.953 78.4314C578.923 78.3763 578.879 78.3309 578.824 78.3006L576.575 77.0708C576.525 77.043 576.483 77.0022 576.454 76.9526C576.425 76.903 576.409 76.8465 576.409 76.7889C576.409 76.7313 576.425 76.6748 576.454 76.6252C576.483 76.5756 576.525 76.5348 576.575 76.5069L578.824 75.2746C578.879 75.2451 578.923 75.2006 578.953 75.1464L580.183 72.8959C580.21 72.8452 580.251 72.803 580.301 72.7735C580.35 72.7441 580.407 72.7285 580.464 72.7285C580.522 72.7285 580.579 72.7441 580.628 72.7735C580.678 72.803 580.719 72.8452 580.746 72.8959L581.977 75.1464C582.007 75.2011 582.051 75.2444 582.105 75.2746" fill="#D15D64"/>
</g>
<g style="mix-blend-mode:lighten">
<path fill-rule="evenodd" clip-rule="evenodd" d="M191.148 136.239L192.259 136.848C192.309 136.876 192.351 136.917 192.381 136.966C192.41 137.016 192.426 137.073 192.426 137.131C192.426 137.188 192.41 137.245 192.381 137.295C192.351 137.344 192.309 137.385 192.259 137.413L191.148 138.02C191.095 138.05 191.051 138.095 191.021 138.149L190.415 139.26C190.387 139.311 190.346 139.353 190.296 139.383C190.247 139.412 190.19 139.428 190.132 139.428C190.074 139.428 190.018 139.412 189.968 139.383C189.918 139.353 189.877 139.311 189.85 139.26L189.243 138.149C189.214 138.095 189.169 138.05 189.115 138.02L188.005 137.413C187.954 137.385 187.912 137.344 187.883 137.295C187.853 137.245 187.838 137.188 187.838 137.131C187.838 137.073 187.853 137.016 187.883 136.966C187.912 136.917 187.954 136.876 188.005 136.848L189.115 136.24C189.169 136.211 189.213 136.167 189.243 136.113L189.85 135.002C189.878 134.951 189.918 134.909 189.968 134.88C190.018 134.85 190.074 134.835 190.132 134.835C190.19 134.835 190.246 134.85 190.296 134.88C190.346 134.909 190.387 134.951 190.415 135.002L191.022 136.113C191.052 136.167 191.097 136.211 191.15 136.241" fill="#FCD05C"/>
</g>
<path fill-rule="evenodd" clip-rule="evenodd" d="M330.263 88.2546L329.061 89.4559L330.263 88.2546ZM333.526 84.986L332.326 86.1888L333.526 84.986ZM330.321 88.3878C330.461 88.5284 330.628 88.6399 330.811 88.716C330.995 88.7921 331.191 88.8313 331.39 88.8313C331.589 88.8313 331.785 88.7921 331.969 88.716C332.152 88.6399 332.319 88.5284 332.459 88.3878C332.6 88.2473 332.711 88.0804 332.787 87.8967C332.863 87.713 332.902 87.5162 332.902 87.3173C332.902 87.1185 332.863 86.9217 332.787 86.738C332.711 86.5543 332.6 86.3874 332.459 86.2469C332.319 86.1063 332.152 85.9948 331.969 85.9187C331.785 85.8426 331.589 85.8034 331.39 85.8034C331.191 85.8034 330.995 85.8426 330.811 85.9187C330.628 85.9948 330.461 86.1063 330.321 86.2469C330.18 86.3874 330.069 86.5543 329.993 86.738C329.917 86.9217 329.878 87.1185 329.878 87.3173C329.878 87.5162 329.917 87.713 329.993 87.8967C330.069 88.0804 330.18 88.2473 330.321 88.3878V88.3878Z" stroke="#7B63AB" stroke-width="1.097" stroke-linecap="round" stroke-linejoin="round"/>
<g style="mix-blend-mode:lighten">
<path fill-rule="evenodd" clip-rule="evenodd" d="M781.288 112.865L783.538 114.097C783.588 114.125 783.63 114.166 783.659 114.215C783.689 114.265 783.704 114.321 783.704 114.379C783.704 114.436 783.689 114.493 783.659 114.543C783.63 114.592 783.588 114.633 783.538 114.661L781.288 115.892C781.234 115.923 781.19 115.968 781.161 116.023L779.93 118.273C779.903 118.324 779.862 118.366 779.813 118.396C779.763 118.425 779.706 118.441 779.649 118.441C779.591 118.441 779.535 118.425 779.485 118.396C779.436 118.366 779.395 118.324 779.367 118.273L778.136 116.021C778.107 115.967 778.062 115.923 778.008 115.893L775.759 114.663C775.709 114.635 775.667 114.595 775.637 114.545C775.608 114.495 775.593 114.439 775.593 114.381C775.593 114.324 775.608 114.267 775.637 114.218C775.667 114.168 775.709 114.127 775.759 114.099L778.008 112.867C778.062 112.838 778.107 112.793 778.136 112.74L779.366 110.488C779.394 110.438 779.435 110.395 779.484 110.366C779.534 110.336 779.59 110.321 779.648 110.321C779.706 110.321 779.762 110.336 779.812 110.366C779.861 110.395 779.902 110.438 779.93 110.488L781.161 112.74C781.19 112.793 781.234 112.838 781.288 112.867" fill="#D15D64"/>
</g>
<g style="mix-blend-mode:lighten">
<path fill-rule="evenodd" clip-rule="evenodd" d="M930.676 144.735L932.925 145.967C932.975 145.994 933.017 146.035 933.046 146.085C933.076 146.134 933.091 146.191 933.091 146.249C933.091 146.306 933.076 146.363 933.046 146.412C933.017 146.462 932.975 146.503 932.925 146.53L930.676 147.763C930.622 147.792 930.578 147.837 930.548 147.89L929.319 150.142C929.292 150.193 929.251 150.236 929.201 150.266C929.151 150.296 929.095 150.311 929.037 150.311C928.979 150.311 928.922 150.296 928.872 150.266C928.822 150.236 928.782 150.193 928.754 150.142L927.525 147.89C927.494 147.836 927.449 147.792 927.394 147.763L925.147 146.531C925.096 146.504 925.054 146.463 925.025 146.413C924.995 146.364 924.98 146.307 924.98 146.249C924.98 146.192 924.995 146.135 925.025 146.085C925.054 146.036 925.096 145.995 925.147 145.967L927.396 144.735C927.45 144.706 927.495 144.661 927.525 144.608L928.754 142.356C928.782 142.306 928.823 142.264 928.872 142.235C928.922 142.205 928.978 142.19 929.036 142.19C929.093 142.19 929.15 142.205 929.199 142.235C929.249 142.264 929.29 142.306 929.317 142.356L930.548 144.608C930.579 144.662 930.622 144.707 930.677 144.737" fill="#E98333"/>
</g>
<g style="mix-blend-mode:lighten">
<path fill-rule="evenodd" clip-rule="evenodd" d="M880.128 82.3056L881.238 82.9144C881.289 82.9422 881.331 82.9832 881.36 83.0329C881.39 83.0826 881.405 83.1393 881.405 83.1971C881.405 83.2549 881.39 83.3116 881.36 83.3613C881.331 83.4111 881.289 83.452 881.238 83.4799L880.128 84.087C880.074 84.1169 880.03 84.1614 880.001 84.2153L879.394 85.3267C879.366 85.3775 879.326 85.4199 879.276 85.4495C879.226 85.479 879.169 85.4946 879.112 85.4946C879.054 85.4946 878.997 85.479 878.947 85.4495C878.898 85.4199 878.857 85.3775 878.829 85.3267L878.223 84.2153C878.193 84.1612 878.149 84.1166 878.095 84.087L876.984 83.4799C876.934 83.452 876.892 83.4111 876.862 83.3613C876.833 83.3116 876.817 83.2549 876.817 83.1971C876.817 83.1393 876.833 83.0826 876.862 83.0329C876.892 82.9832 876.934 82.9422 876.984 82.9144L878.095 82.3064C878.148 82.2773 878.193 82.2333 878.223 82.1797L878.829 81.0684C878.857 81.0178 878.898 80.9756 878.948 80.9462C878.997 80.9168 879.054 80.9013 879.112 80.9013C879.169 80.9013 879.226 80.9168 879.276 80.9462C879.325 80.9756 879.366 81.0178 879.394 81.0684L880.001 82.1797C880.032 82.2337 880.077 82.2778 880.13 82.3072" fill="#FCD05C"/>
</g>
<g style="mix-blend-mode:lighten">
<path fill-rule="evenodd" clip-rule="evenodd" d="M981.153 207.486C981.153 208.116 980.903 208.72 980.457 209.165C980.012 209.611 979.408 209.861 978.779 209.86C978.149 209.86 977.545 209.61 977.101 209.164C976.656 208.718 976.406 208.113 976.406 207.483C976.406 207.171 976.468 206.862 976.587 206.574C976.707 206.286 976.882 206.024 977.102 205.804C977.323 205.583 977.585 205.408 977.873 205.289C978.161 205.17 978.469 205.108 978.781 205.109C979.093 205.109 979.401 205.17 979.689 205.29C979.977 205.41 980.239 205.585 980.459 205.805C980.679 206.026 980.854 206.288 980.973 206.576C981.092 206.865 981.153 207.174 981.153 207.486V207.486ZM89.8594 260.773L92.1092 262.004C92.1599 262.032 92.2023 262.073 92.2318 262.123C92.2614 262.172 92.2769 262.229 92.2769 262.287C92.2769 262.345 92.2614 262.402 92.2318 262.451C92.2023 262.501 92.1599 262.542 92.1092 262.57L89.8594 263.801C89.8058 263.831 89.7617 263.875 89.732 263.929L88.5018 266.18C88.4742 266.231 88.4335 266.273 88.3839 266.302C88.3344 266.332 88.2778 266.347 88.2202 266.347C88.1625 266.347 88.106 266.332 88.0564 266.302C88.0069 266.273 87.9661 266.231 87.9385 266.18L86.7075 263.929C86.6778 263.875 86.6333 263.831 86.5794 263.801L84.3304 262.57C84.2796 262.542 84.2372 262.501 84.2077 262.451C84.1782 262.402 84.1626 262.345 84.1626 262.287C84.1626 262.229 84.1782 262.172 84.2077 262.123C84.2372 262.073 84.2796 262.032 84.3304 262.004L86.5794 260.773C86.6333 260.744 86.6778 260.7 86.7075 260.646L87.9377 258.395C87.9653 258.344 88.006 258.302 88.0556 258.273C88.1052 258.243 88.1617 258.228 88.2194 258.228C88.277 258.228 88.3336 258.243 88.3831 258.273C88.4327 258.302 88.4734 258.344 88.501 258.395L89.732 260.647C89.7614 260.702 89.8055 260.745 89.8594 260.774" fill="#D15D64"/>
</g>
<g style="mix-blend-mode:lighten">
<path fill-rule="evenodd" clip-rule="evenodd" d="M164.209 369.95L165.32 370.559C165.37 370.587 165.412 370.628 165.442 370.678C165.471 370.727 165.487 370.784 165.487 370.842C165.487 370.9 165.471 370.956 165.442 371.006C165.412 371.056 165.37 371.097 165.32 371.125L164.209 371.732C164.156 371.762 164.112 371.806 164.082 371.86L163.476 372.971C163.448 373.022 163.407 373.065 163.357 373.094C163.308 373.124 163.251 373.139 163.193 373.139C163.135 373.139 163.079 373.124 163.029 373.094C162.979 373.065 162.938 373.022 162.911 372.971L162.304 371.86C162.275 371.806 162.23 371.761 162.176 371.732L161.066 371.125C161.015 371.097 160.973 371.056 160.944 371.006C160.914 370.956 160.899 370.9 160.899 370.842C160.899 370.784 160.914 370.727 160.944 370.678C160.973 370.628 161.015 370.587 161.066 370.559L162.176 369.951C162.23 369.922 162.274 369.878 162.304 369.824L162.911 368.713C162.939 368.662 162.979 368.62 163.029 368.591C163.079 368.562 163.135 368.546 163.193 368.546C163.251 368.546 163.308 368.562 163.357 368.591C163.407 368.62 163.448 368.662 163.476 368.713L164.083 369.824C164.113 369.878 164.158 369.922 164.211 369.952" fill="#FCD05C"/>
</g>
<g style="mix-blend-mode:lighten">
<path fill-rule="evenodd" clip-rule="evenodd" d="M1352.72 430.745L1354.97 431.977C1355.02 432.005 1355.06 432.046 1355.09 432.095C1355.12 432.145 1355.13 432.202 1355.13 432.26C1355.13 432.317 1355.12 432.374 1355.09 432.424C1355.06 432.474 1355.02 432.515 1354.97 432.542L1352.72 433.773C1352.66 433.803 1352.62 433.847 1352.59 433.901L1351.36 436.152C1351.33 436.203 1351.29 436.246 1351.24 436.275C1351.19 436.305 1351.14 436.321 1351.08 436.321C1351.02 436.321 1350.96 436.305 1350.91 436.275C1350.86 436.246 1350.82 436.203 1350.79 436.152L1349.57 433.901C1349.54 433.846 1349.49 433.801 1349.43 433.771L1347.19 432.541C1347.14 432.513 1347.09 432.472 1347.06 432.423C1347.04 432.373 1347.02 432.316 1347.02 432.258C1347.02 432.2 1347.04 432.143 1347.06 432.094C1347.09 432.044 1347.14 432.003 1347.19 431.975L1349.44 430.743C1349.49 430.714 1349.54 430.67 1349.57 430.616L1350.79 428.365C1350.82 428.314 1350.86 428.272 1350.91 428.243C1350.96 428.213 1351.02 428.198 1351.08 428.198C1351.13 428.198 1351.19 428.213 1351.24 428.243C1351.29 428.272 1351.33 428.314 1351.36 428.365L1352.59 430.616C1352.62 430.67 1352.66 430.715 1352.72 430.744L1352.72 430.745ZM1119.98 82.2443L1121.04 82.8245C1121.25 82.9422 1121.25 83.2494 1121.04 83.3639L1119.98 83.9465C1119.93 83.9744 1119.89 84.0164 1119.86 84.0674L1119.28 85.1298C1119.25 85.178 1119.21 85.2181 1119.17 85.2461C1119.12 85.2741 1119.06 85.2889 1119.01 85.2889C1118.95 85.2889 1118.9 85.2741 1118.85 85.2461C1118.81 85.2181 1118.77 85.178 1118.74 85.1298L1118.16 84.0674C1118.13 84.0163 1118.09 83.9744 1118.04 83.9465L1116.98 83.3647C1116.93 83.338 1116.89 83.299 1116.86 83.2516C1116.83 83.2041 1116.82 83.1501 1116.82 83.095C1116.82 83.0399 1116.83 82.9859 1116.86 82.9385C1116.89 82.891 1116.93 82.852 1116.98 82.8253L1118.04 82.2451C1118.09 82.2164 1118.13 82.174 1118.16 82.1226L1118.74 81.0602C1118.76 81.0114 1118.8 80.9706 1118.85 80.9422C1118.9 80.9138 1118.95 80.8987 1119.01 80.8987C1119.06 80.8987 1119.12 80.9138 1119.17 80.9422C1119.21 80.9706 1119.25 81.0114 1119.28 81.0602L1119.86 82.1226C1119.89 82.1741 1119.93 82.2166 1119.98 82.2451" fill="#D15D64"/>
</g>
<g style="mix-blend-mode:lighten">
<path fill-rule="evenodd" clip-rule="evenodd" d="M1329.92 312.748L1331.03 313.357C1331.08 313.385 1331.13 313.426 1331.16 313.476C1331.19 313.525 1331.2 313.582 1331.2 313.64C1331.2 313.698 1331.19 313.754 1331.16 313.804C1331.13 313.854 1331.08 313.895 1331.03 313.923L1329.92 314.53C1329.87 314.56 1329.83 314.604 1329.8 314.658L1329.19 315.769C1329.16 315.82 1329.12 315.863 1329.07 315.892C1329.02 315.922 1328.97 315.937 1328.91 315.937C1328.85 315.937 1328.79 315.922 1328.74 315.892C1328.69 315.863 1328.65 315.82 1328.62 315.769L1328.02 314.658C1327.99 314.604 1327.94 314.559 1327.89 314.53L1326.78 313.923C1326.73 313.895 1326.69 313.854 1326.66 313.804C1326.63 313.754 1326.61 313.698 1326.61 313.64C1326.61 313.582 1326.63 313.525 1326.66 313.476C1326.69 313.426 1326.73 313.385 1326.78 313.357L1327.89 312.749C1327.94 312.72 1327.99 312.676 1328.02 312.622L1328.62 311.511C1328.65 311.46 1328.69 311.418 1328.74 311.389C1328.79 311.359 1328.85 311.344 1328.91 311.344C1328.97 311.344 1329.02 311.359 1329.07 311.389C1329.12 311.418 1329.16 311.46 1329.19 311.511L1329.8 312.622C1329.83 312.676 1329.87 312.72 1329.93 312.75" fill="#FCD05C"/>
</g>
<path fill-rule="evenodd" clip-rule="evenodd" d="M331.51 315.337L334.411 314.611L333.687 317.516L331.51 315.337Z" stroke="#E98333" stroke-width="1.097" stroke-linecap="round" stroke-linejoin="round"/>
<g style="mix-blend-mode:lighten">
<path fill-rule="evenodd" clip-rule="evenodd" d="M422.307 411.052L423.954 411.955L422.307 412.856L421.406 414.505L420.504 412.856L418.857 411.955L420.504 411.052L421.406 409.403L422.307 411.052Z" fill="#00A959"/>
</g>
<g style="mix-blend-mode:lighten">
<path fill-rule="evenodd" clip-rule="evenodd" d="M429.453 32.7825L431.701 34.014C431.752 34.0418 431.794 34.0826 431.823 34.1322C431.852 34.1818 431.867 34.2383 431.867 34.2959C431.867 34.3535 431.852 34.41 431.823 34.4596C431.794 34.5092 431.752 34.55 431.701 34.5778L429.452 35.8101C429.398 35.8395 429.353 35.8837 429.323 35.9376L428.094 38.1897C428.066 38.2408 428.026 38.2834 427.976 38.3132C427.926 38.3429 427.869 38.3586 427.811 38.3586C427.753 38.3586 427.697 38.3429 427.647 38.3132C427.597 38.2834 427.556 38.2408 427.529 38.1897L426.299 35.9376C426.269 35.8839 426.224 35.8398 426.171 35.8101L423.922 34.5786C423.871 34.551 423.829 34.5103 423.799 34.4606C423.77 34.411 423.754 34.3544 423.754 34.2967C423.754 34.239 423.77 34.1824 423.799 34.1328C423.829 34.0832 423.871 34.0424 423.922 34.0148L426.171 32.7825C426.224 32.7528 426.269 32.7087 426.299 32.655L427.53 30.4037C427.558 30.3533 427.598 30.3112 427.648 30.282C427.697 30.2527 427.754 30.2372 427.811 30.2372C427.869 30.2372 427.925 30.2527 427.975 30.282C428.024 30.3112 428.065 30.3533 428.093 30.4037L429.323 32.6558C429.353 32.7098 429.397 32.7539 429.451 32.7841" fill="#E98333"/>
</g>
<path fill-rule="evenodd" clip-rule="evenodd" d="M529.763 165.278L529.072 163.971C529.039 163.908 528.987 163.857 528.925 163.824L527.619 163.131C527.562 163.1 527.514 163.055 527.481 163C527.447 162.945 527.43 162.881 527.43 162.817C527.43 162.752 527.447 162.689 527.481 162.634C527.514 162.578 527.562 162.533 527.619 162.503L528.925 161.811C528.987 161.777 529.039 161.726 529.072 161.664L529.763 160.356C529.794 160.299 529.839 160.251 529.894 160.217C529.95 160.184 530.013 160.166 530.078 160.166C530.142 160.166 530.206 160.184 530.261 160.217C530.317 160.251 530.362 160.299 530.392 160.356L531.082 161.664C531.115 161.726 531.166 161.777 531.229 161.811L532.535 162.503C532.788 162.636 532.788 162.997 532.535 163.131L531.229 163.823C531.166 163.856 531.115 163.907 531.082 163.97L530.391 165.277C530.361 165.335 530.316 165.383 530.261 165.416C530.205 165.45 530.142 165.467 530.077 165.467C530.012 165.467 529.949 165.45 529.893 165.416C529.838 165.383 529.793 165.335 529.763 165.277L529.763 165.278Z" stroke="#7B63AB" stroke-width="1.097" stroke-linecap="round" stroke-linejoin="round"/>
<g style="mix-blend-mode:lighten">
<path fill-rule="evenodd" clip-rule="evenodd" d="M480.88 131.66L483.13 132.892C483.18 132.92 483.222 132.96 483.251 133.01C483.281 133.06 483.296 133.116 483.296 133.174C483.296 133.231 483.281 133.288 483.251 133.337C483.222 133.387 483.18 133.428 483.13 133.456L480.88 134.687C480.826 134.718 480.782 134.763 480.753 134.818L479.522 137.068C479.495 137.119 479.454 137.161 479.404 137.191C479.355 137.22 479.298 137.236 479.241 137.236C479.183 137.236 479.126 137.22 479.077 137.191C479.027 137.161 478.987 137.119 478.959 137.068L477.728 134.816C477.698 134.762 477.654 134.718 477.6 134.688L475.351 133.458C475.301 133.43 475.259 133.389 475.229 133.34C475.2 133.29 475.185 133.234 475.185 133.176C475.185 133.119 475.2 133.062 475.229 133.012C475.259 132.963 475.301 132.922 475.351 132.894L477.6 131.662C477.654 131.633 477.698 131.588 477.728 131.534L478.958 129.283C478.986 129.233 479.027 129.19 479.076 129.161C479.126 129.131 479.182 129.116 479.24 129.116C479.297 129.116 479.354 129.131 479.404 129.161C479.453 129.19 479.494 129.233 479.522 129.283L480.753 131.534C480.782 131.588 480.826 131.633 480.88 131.662" fill="#D15D64"/>
</g>
<g style="mix-blend-mode:lighten">
<path fill-rule="evenodd" clip-rule="evenodd" d="M141.29 103.876L143.538 105.108C143.588 105.136 143.63 105.177 143.66 105.226C143.689 105.276 143.704 105.332 143.704 105.39C143.704 105.447 143.689 105.504 143.66 105.554C143.63 105.603 143.588 105.644 143.538 105.672L141.288 106.904C141.234 106.934 141.19 106.978 141.161 107.032L139.931 109.284C139.903 109.334 139.862 109.377 139.813 109.406C139.763 109.436 139.707 109.451 139.649 109.451C139.591 109.451 139.535 109.436 139.485 109.406C139.436 109.377 139.395 109.334 139.367 109.284L138.137 107.032C138.106 106.978 138.061 106.933 138.006 106.904L135.76 105.673C135.709 105.645 135.667 105.604 135.638 105.555C135.608 105.505 135.593 105.448 135.593 105.391C135.593 105.333 135.608 105.276 135.638 105.227C135.667 105.177 135.709 105.136 135.76 105.109L138.008 103.876C138.062 103.847 138.106 103.803 138.136 103.749L139.367 101.498C139.395 101.447 139.436 101.405 139.485 101.376C139.535 101.347 139.591 101.331 139.649 101.331C139.706 101.331 139.763 101.347 139.812 101.376C139.862 101.405 139.903 101.447 139.931 101.498L141.161 103.75C141.19 103.804 141.234 103.848 141.288 103.878" fill="#E98333"/>
</g>
<g style="mix-blend-mode:lighten">
<path fill-rule="evenodd" clip-rule="evenodd" d="M240.745 46.5028C240.745 47.133 240.494 47.7372 240.049 48.1825C239.604 48.6278 239 48.8779 238.37 48.8775C237.741 48.8772 237.137 48.6266 236.692 48.1808C236.247 47.735 235.998 47.1305 235.998 46.5004C235.998 46.1884 236.06 45.8794 236.179 45.5912C236.299 45.303 236.474 45.0412 236.694 44.8207C236.915 44.6002 237.176 44.4253 237.464 44.3061C237.752 44.1868 238.061 44.1255 238.373 44.1257C238.684 44.1258 238.993 44.1874 239.281 44.307C239.569 44.4265 239.83 44.6017 240.051 44.8224C240.271 45.0432 240.446 45.3052 240.565 45.5935C240.684 45.8818 240.745 46.1908 240.745 46.5028" fill="#D15D64"/>
</g>
<path fill-rule="evenodd" clip-rule="evenodd" d="M37.5183 167.73L36.8268 166.422C36.7934 166.36 36.7423 166.308 36.6799 166.275L35.3738 165.582C35.3167 165.552 35.2689 165.507 35.2355 165.451C35.2022 165.396 35.1846 165.333 35.1846 165.268C35.1846 165.204 35.2022 165.14 35.2355 165.085C35.2689 165.03 35.3167 164.985 35.3738 164.954L36.6799 164.262C36.7422 164.229 36.7933 164.178 36.8268 164.115L37.5183 162.808C37.5484 162.75 37.5936 162.702 37.649 162.669C37.7044 162.635 37.7678 162.618 37.8325 162.618C37.8973 162.618 37.9607 162.635 38.0161 162.669C38.0715 162.702 38.1167 162.75 38.1468 162.808L38.8366 164.115C38.8701 164.178 38.9212 164.229 38.9836 164.262L40.2897 164.954C40.5428 165.088 40.5428 165.449 40.2897 165.582L38.9836 166.274C38.9211 166.307 38.8699 166.359 38.8366 166.421L38.146 167.729C38.1159 167.786 38.0707 167.834 38.0153 167.868C37.9599 167.901 37.8964 167.919 37.8317 167.919C37.767 167.919 37.7035 167.901 37.6482 167.868C37.5928 167.834 37.5476 167.786 37.5174 167.729L37.5183 167.73Z" stroke="#7B63AB" stroke-width="1.097" stroke-linecap="round" stroke-linejoin="round"/>
<g style="mix-blend-mode:lighten">
<path fill-rule="evenodd" clip-rule="evenodd" d="M1376.39 213.377L1378.64 214.608C1378.69 214.636 1378.73 214.677 1378.76 214.727C1378.79 214.777 1378.81 214.833 1378.81 214.891C1378.81 214.949 1378.79 215.005 1378.76 215.055C1378.73 215.105 1378.69 215.146 1378.64 215.174L1376.39 216.405C1376.34 216.435 1376.29 216.479 1376.26 216.533L1375.03 218.784C1375.01 218.835 1374.97 218.878 1374.92 218.907C1374.87 218.937 1374.81 218.953 1374.75 218.953C1374.69 218.953 1374.64 218.937 1374.59 218.907C1374.54 218.878 1374.5 218.835 1374.47 218.784L1373.24 216.533C1373.21 216.478 1373.16 216.434 1373.11 216.405L1370.86 215.174C1370.81 215.146 1370.77 215.105 1370.74 215.055C1370.71 215.006 1370.69 214.949 1370.69 214.891C1370.69 214.833 1370.71 214.776 1370.74 214.727C1370.77 214.677 1370.81 214.636 1370.86 214.608L1373.11 213.377C1373.16 213.348 1373.21 213.304 1373.24 213.25L1374.47 210.999C1374.5 210.948 1374.54 210.906 1374.59 210.876C1374.64 210.847 1374.69 210.831 1374.75 210.831C1374.81 210.831 1374.86 210.847 1374.91 210.876C1374.96 210.906 1375 210.948 1375.03 210.999L1376.26 213.251C1376.29 213.305 1376.34 213.349 1376.39 213.378" fill="#D15D64"/>
</g>
<g style="mix-blend-mode:lighten">
<path fill-rule="evenodd" clip-rule="evenodd" d="M1332.37 182.819L1333.48 183.427C1333.53 183.454 1333.58 183.495 1333.61 183.545C1333.63 183.595 1333.65 183.652 1333.65 183.709C1333.65 183.767 1333.63 183.824 1333.61 183.874C1333.58 183.923 1333.53 183.964 1333.48 183.992L1332.37 184.6C1332.32 184.63 1332.28 184.674 1332.25 184.728L1331.64 185.84C1331.61 185.89 1331.57 185.932 1331.52 185.962C1331.47 185.991 1331.41 186.007 1331.36 186.007C1331.3 186.007 1331.24 185.991 1331.19 185.962C1331.14 185.932 1331.1 185.89 1331.07 185.84L1330.47 184.728C1330.44 184.674 1330.39 184.63 1330.34 184.601L1329.23 183.994C1329.18 183.966 1329.14 183.925 1329.11 183.875C1329.08 183.825 1329.06 183.769 1329.06 183.711C1329.06 183.653 1329.08 183.596 1329.11 183.547C1329.14 183.497 1329.18 183.456 1329.23 183.428L1330.34 182.821C1330.39 182.791 1330.44 182.747 1330.47 182.693L1331.07 181.581C1331.1 181.531 1331.14 181.489 1331.19 181.459C1331.24 181.43 1331.3 181.414 1331.36 181.414C1331.41 181.414 1331.47 181.43 1331.52 181.459C1331.57 181.489 1331.61 181.531 1331.64 181.581L1332.25 182.693C1332.28 182.747 1332.32 182.791 1332.37 182.821" fill="#7B63AB"/>
</g>
<g style="mix-blend-mode:lighten">
<path fill-rule="evenodd" clip-rule="evenodd" d="M1311.82 39.7513L1312.88 40.3315C1313.09 40.45 1313.09 40.7564 1312.88 40.8725L1311.82 41.4527C1311.77 41.4811 1311.72 41.5236 1311.7 41.5752L1311.12 42.6376C1311.09 42.6858 1311.05 42.726 1311 42.7539C1310.96 42.7819 1310.9 42.7967 1310.85 42.7967C1310.79 42.7967 1310.74 42.7819 1310.69 42.7539C1310.64 42.726 1310.6 42.6858 1310.58 42.6376L1310 41.5752C1309.97 41.5235 1309.93 41.481 1309.87 41.4527L1308.81 40.8725C1308.76 40.846 1308.72 40.8069 1308.69 40.7593C1308.67 40.7117 1308.65 40.6574 1308.65 40.602C1308.65 40.5466 1308.67 40.4923 1308.69 40.4447C1308.72 40.3971 1308.76 40.358 1308.81 40.3315L1309.87 39.7513C1309.92 39.7226 1309.97 39.6801 1310 39.6287L1310.58 38.5681C1310.6 38.5192 1310.64 38.4784 1310.69 38.45C1310.74 38.4216 1310.79 38.4066 1310.85 38.4066C1310.9 38.4066 1310.96 38.4216 1311 38.45C1311.05 38.4784 1311.09 38.5192 1311.12 38.5681L1311.7 39.6287C1311.72 39.6803 1311.77 39.7228 1311.82 39.7513" fill="#D15D64"/>
</g>
<g style="mix-blend-mode:lighten">
<path fill-rule="evenodd" clip-rule="evenodd" d="M1353.6 95.3803L1354.71 95.9891C1354.76 96.017 1354.8 96.0579 1354.83 96.1077C1354.86 96.1574 1354.87 96.2141 1354.87 96.2719C1354.87 96.3296 1354.86 96.3864 1354.83 96.4361C1354.8 96.4858 1354.76 96.5268 1354.71 96.5546L1353.6 97.1618C1353.54 97.1917 1353.5 97.2362 1353.47 97.2901L1352.86 98.4014C1352.84 98.4523 1352.8 98.4947 1352.75 98.5242C1352.7 98.5538 1352.64 98.5694 1352.58 98.5694C1352.52 98.5694 1352.47 98.5538 1352.42 98.5242C1352.37 98.4947 1352.33 98.4523 1352.3 98.4014L1351.69 97.2901C1351.66 97.2359 1351.62 97.1914 1351.56 97.1618L1350.45 96.5546C1350.4 96.5268 1350.36 96.4858 1350.33 96.4361C1350.3 96.3864 1350.29 96.3296 1350.29 96.2719C1350.29 96.2141 1350.3 96.1574 1350.33 96.1077C1350.36 96.0579 1350.4 96.017 1350.45 95.9891L1351.56 95.3812C1351.62 95.3521 1351.66 95.3081 1351.69 95.2545L1352.3 94.1431C1352.33 94.0925 1352.37 94.0503 1352.42 94.021C1352.47 93.9916 1352.52 93.9761 1352.58 93.9761C1352.64 93.9761 1352.7 93.9916 1352.75 94.021C1352.79 94.0503 1352.84 94.0925 1352.86 94.1431L1353.47 95.2545C1353.5 95.3084 1353.55 95.3526 1353.6 95.382" fill="#FCD05C"/>
</g>
<mask id="mask0_40_232" style="mask-type:alpha" maskUnits="userSpaceOnUse" x="1286" y="354" width="5" height="6">
<path d="M1290.88 354.708V359.303H1286.29V354.707H1290.88V354.708Z" fill="white"/>
</mask>
<g mask="url(#mask0_40_232)">
<path fill-rule="evenodd" clip-rule="evenodd" d="M1289.61 356.116L1290.72 356.723C1290.77 356.751 1290.81 356.791 1290.84 356.841C1290.87 356.891 1290.88 356.948 1290.88 357.006C1290.88 357.063 1290.87 357.12 1290.84 357.17C1290.81 357.22 1290.77 357.261 1290.72 357.288L1289.61 357.896C1289.55 357.925 1289.51 357.969 1289.48 358.023L1288.87 359.134C1288.84 359.185 1288.8 359.228 1288.75 359.257C1288.7 359.287 1288.65 359.302 1288.59 359.302C1288.53 359.302 1288.47 359.287 1288.42 359.257C1288.37 359.228 1288.33 359.185 1288.31 359.134L1287.7 358.023C1287.67 357.969 1287.63 357.925 1287.57 357.896L1286.46 357.288C1286.41 357.261 1286.37 357.22 1286.34 357.17C1286.31 357.12 1286.29 357.063 1286.29 357.006C1286.29 356.948 1286.31 356.891 1286.34 356.841C1286.37 356.792 1286.41 356.751 1286.46 356.723L1287.57 356.115C1287.63 356.085 1287.67 356.041 1287.7 355.987L1288.31 354.875C1288.34 354.824 1288.38 354.782 1288.43 354.752C1288.48 354.723 1288.53 354.707 1288.59 354.707C1288.65 354.707 1288.7 354.723 1288.75 354.752C1288.8 354.782 1288.84 354.824 1288.87 354.875L1289.48 355.987C1289.51 356.041 1289.55 356.085 1289.61 356.114" fill="#7B63AB"/>
</g>
<g style="mix-blend-mode:lighten">
<path fill-rule="evenodd" clip-rule="evenodd" d="M1126.59 394.791L1128.84 396.022C1128.89 396.05 1128.94 396.091 1128.96 396.14C1128.99 396.19 1129.01 396.247 1129.01 396.304C1129.01 396.362 1128.99 396.418 1128.96 396.468C1128.94 396.517 1128.89 396.558 1128.84 396.586L1126.59 397.818C1126.54 397.847 1126.5 397.891 1126.47 397.945L1125.24 400.196C1125.21 400.247 1125.17 400.29 1125.12 400.32C1125.07 400.349 1125.01 400.365 1124.95 400.365C1124.9 400.365 1124.84 400.349 1124.79 400.32C1124.74 400.29 1124.7 400.247 1124.67 400.196L1123.44 397.945C1123.41 397.891 1123.37 397.847 1123.31 397.818L1121.07 396.586C1121.01 396.558 1120.97 396.518 1120.94 396.468C1120.91 396.418 1120.9 396.362 1120.9 396.304C1120.9 396.246 1120.91 396.19 1120.94 396.14C1120.97 396.091 1121.01 396.05 1121.07 396.022L1123.31 394.791C1123.37 394.761 1123.41 394.717 1123.44 394.662L1124.67 392.411C1124.7 392.36 1124.74 392.318 1124.79 392.289C1124.84 392.259 1124.9 392.244 1124.95 392.244C1125.01 392.244 1125.07 392.259 1125.12 392.289C1125.17 392.318 1125.21 392.36 1125.23 392.411L1126.47 394.663C1126.5 394.718 1126.54 394.763 1126.6 394.792" fill="#FCD05C"/>
</g>
<g style="mix-blend-mode:lighten">
<path fill-rule="evenodd" clip-rule="evenodd" d="M1035.9 276.732L1036.96 277.312C1037.17 277.43 1037.17 277.737 1036.96 277.852L1035.9 278.434C1035.85 278.462 1035.81 278.504 1035.78 278.556L1035.2 279.617C1035.17 279.665 1035.13 279.705 1035.08 279.733C1035.04 279.761 1034.98 279.776 1034.93 279.776C1034.87 279.776 1034.82 279.761 1034.77 279.733C1034.72 279.705 1034.69 279.665 1034.66 279.617L1034.08 278.555C1034.05 278.503 1034.01 278.462 1033.96 278.434L1032.89 277.852C1032.85 277.825 1032.81 277.786 1032.78 277.739C1032.75 277.691 1032.73 277.637 1032.73 277.582C1032.73 277.527 1032.75 277.473 1032.78 277.426C1032.81 277.378 1032.85 277.339 1032.89 277.312L1033.96 276.732C1034.01 276.703 1034.05 276.661 1034.08 276.61L1034.66 275.547C1034.68 275.499 1034.72 275.458 1034.77 275.429C1034.82 275.401 1034.87 275.386 1034.93 275.386C1034.98 275.386 1035.04 275.401 1035.08 275.429C1035.13 275.458 1035.17 275.499 1035.2 275.547L1035.78 276.61C1035.81 276.661 1035.85 276.704 1035.9 276.732" fill="#D15D64"/>
</g>
<g style="mix-blend-mode:lighten">
<path fill-rule="evenodd" clip-rule="evenodd" d="M1215.64 332.36L1216.75 332.969C1216.8 332.997 1216.84 333.038 1216.87 333.088C1216.9 333.137 1216.92 333.194 1216.92 333.252C1216.92 333.31 1216.9 333.366 1216.87 333.416C1216.84 333.466 1216.8 333.507 1216.75 333.535L1215.64 334.142C1215.58 334.172 1215.54 334.216 1215.51 334.27L1214.9 335.381C1214.88 335.432 1214.84 335.475 1214.79 335.504C1214.74 335.534 1214.68 335.549 1214.62 335.549C1214.56 335.549 1214.51 335.534 1214.46 335.504C1214.41 335.475 1214.37 335.432 1214.34 335.381L1213.73 334.27C1213.7 334.216 1213.66 334.171 1213.6 334.142L1212.49 333.535C1212.44 333.507 1212.4 333.466 1212.37 333.416C1212.34 333.366 1212.33 333.31 1212.33 333.252C1212.33 333.194 1212.34 333.137 1212.37 333.088C1212.4 333.038 1212.44 332.997 1212.49 332.969L1213.6 332.361C1213.66 332.332 1213.7 332.288 1213.73 332.234L1214.34 331.123C1214.37 331.073 1214.41 331.03 1214.46 331.001C1214.51 330.972 1214.56 330.956 1214.62 330.956C1214.68 330.956 1214.74 330.972 1214.79 331.001C1214.84 331.03 1214.88 331.073 1214.9 331.123L1215.51 332.234C1215.54 332.288 1215.59 332.333 1215.64 332.362" fill="#FCD05C"/>
</g>
<path fill-rule="evenodd" clip-rule="evenodd" d="M1393.55 368.156L1394.99 367.713L1396.43 368.156L1395.98 366.716L1396.43 365.276L1394.99 365.72L1393.55 365.276L1393.99 366.716L1393.55 368.156Z" stroke="#00A959" stroke-width="1.097" stroke-linecap="round" stroke-linejoin="round"/>
<mask id="mask1_40_232" style="mask-type:alpha" maskUnits="userSpaceOnUse" x="1301" y="508" width="9" height="9">
<path d="M1301.04 508.851H1309.15V516.972H1301.04V508.851Z" fill="white"/>
</mask>
<g mask="url(#mask1_40_232)">
<path fill-rule="evenodd" clip-rule="evenodd" d="M1306.73 511.397L1308.98 512.628C1309.03 512.656 1309.07 512.697 1309.1 512.747C1309.13 512.796 1309.15 512.853 1309.15 512.91C1309.15 512.968 1309.13 513.025 1309.1 513.074C1309.07 513.124 1309.03 513.165 1308.98 513.192L1306.73 514.426C1306.68 514.456 1306.63 514.5 1306.6 514.555L1305.38 516.804C1305.35 516.855 1305.31 516.897 1305.26 516.926C1305.21 516.955 1305.15 516.971 1305.09 516.971C1305.04 516.971 1304.98 516.955 1304.93 516.926C1304.88 516.897 1304.84 516.855 1304.81 516.804L1303.58 514.553C1303.55 514.499 1303.51 514.454 1303.45 514.425L1301.2 513.192C1301.15 513.165 1301.11 513.124 1301.08 513.074C1301.05 513.025 1301.04 512.968 1301.04 512.91C1301.04 512.853 1301.05 512.796 1301.08 512.747C1301.11 512.697 1301.15 512.656 1301.2 512.628L1303.45 511.397C1303.51 511.367 1303.55 511.323 1303.58 511.269L1304.81 509.017C1304.84 508.966 1304.88 508.924 1304.93 508.895C1304.98 508.866 1305.03 508.85 1305.09 508.85C1305.15 508.85 1305.21 508.866 1305.26 508.895C1305.3 508.924 1305.35 508.966 1305.37 509.017L1306.6 511.269C1306.63 511.323 1306.68 511.368 1306.73 511.397" fill="#D15D64"/>
</g>
<path fill-rule="evenodd" clip-rule="evenodd" d="M53.5283 419.209L52.3267 420.411L53.5283 419.209ZM56.792 415.941L55.592 417.142L56.792 415.941ZM53.5863 419.343C53.8699 419.627 54.2545 419.786 54.6556 419.786C55.0567 419.786 55.4414 419.627 55.725 419.343C56.0087 419.059 56.168 418.674 56.168 418.272C56.168 417.871 56.0087 417.486 55.725 417.202C55.4414 416.918 55.0567 416.758 54.6556 416.758C54.2545 416.758 53.8699 416.918 53.5863 417.202C53.3026 417.486 53.1433 417.871 53.1433 418.272C53.1433 418.674 53.3026 419.059 53.5863 419.343V419.343Z" stroke="#E98333" stroke-width="1.097" stroke-linecap="round" stroke-linejoin="round"/>
<g style="mix-blend-mode:lighten">
<path fill-rule="evenodd" clip-rule="evenodd" d="M191.148 981.342L192.259 980.735C192.309 980.707 192.351 980.666 192.381 980.617C192.41 980.567 192.426 980.51 192.426 980.453C192.426 980.395 192.41 980.338 192.381 980.288C192.351 980.239 192.309 980.198 192.259 980.17L191.148 979.563C191.095 979.533 191.051 979.488 191.021 979.434L190.415 978.323C190.387 978.272 190.346 978.23 190.296 978.2C190.247 978.171 190.19 978.155 190.132 978.155C190.074 978.155 190.018 978.171 189.968 978.2C189.918 978.23 189.877 978.272 189.85 978.323L189.243 979.434C189.214 979.488 189.169 979.533 189.115 979.563L188.005 980.17C187.954 980.198 187.912 980.239 187.883 980.288C187.853 980.338 187.838 980.395 187.838 980.453C187.838 980.51 187.853 980.567 187.883 980.617C187.912 980.666 187.954 980.707 188.005 980.735L189.115 981.343C189.169 981.373 189.213 981.417 189.243 981.472L189.85 982.583C189.972 982.806 190.292 982.806 190.415 982.583L191.022 981.472C191.052 981.418 191.096 981.374 191.15 981.344" fill="#FCD05C"/>
</g>
<g style="mix-blend-mode:lighten">
<path fill-rule="evenodd" clip-rule="evenodd" d="M981.153 925.78C981.153 925.149 980.902 924.545 980.457 924.1C980.012 923.655 979.408 923.405 978.779 923.405C978.149 923.405 977.545 923.656 977.101 924.102C976.656 924.547 976.406 925.152 976.406 925.782C976.407 926.412 976.657 927.016 977.103 927.462C977.548 927.907 978.152 928.157 978.781 928.156C979.411 928.156 980.014 927.905 980.459 927.459C980.904 927.013 981.154 926.409 981.153 925.779V925.78ZM89.8593 846.445L92.1091 845.215C92.1599 845.187 92.2023 845.146 92.2318 845.096C92.2613 845.046 92.2769 844.99 92.2769 844.932C92.2769 844.874 92.2613 844.817 92.2318 844.767C92.2023 844.718 92.1599 844.677 92.1091 844.649L89.8593 843.417C89.8057 843.388 89.7615 843.343 89.732 843.289L88.5018 841.038C88.4742 840.987 88.4335 840.945 88.3839 840.916C88.3344 840.886 88.2778 840.871 88.2202 840.871C88.1625 840.871 88.106 840.886 88.0564 840.916C88.0068 840.945 87.9661 840.987 87.9385 841.038L86.7075 843.289C86.6779 843.343 86.6334 843.388 86.5793 843.417L84.3304 844.649C84.28 844.677 84.238 844.718 84.2087 844.767C84.1795 844.817 84.1641 844.873 84.1641 844.931C84.1641 844.989 84.1795 845.045 84.2087 845.095C84.238 845.144 84.28 845.185 84.3304 845.213L86.5793 846.445C86.6332 846.475 86.6773 846.519 86.7075 846.573L87.9377 848.823C88.0602 849.047 88.3802 849.047 88.501 848.823L89.732 846.572C89.7616 846.518 89.8057 846.474 89.8593 846.444" fill="#D15D64"/>
</g>
<g style="mix-blend-mode:lighten">
<path fill-rule="evenodd" clip-rule="evenodd" d="M164.209 648.753L165.32 648.145C165.37 648.117 165.412 648.076 165.442 648.027C165.471 647.977 165.487 647.92 165.487 647.863C165.487 647.805 165.471 647.748 165.442 647.698C165.412 647.649 165.37 647.608 165.32 647.58L164.209 646.973C164.156 646.943 164.112 646.899 164.082 646.845L163.476 645.734C163.448 645.683 163.407 645.641 163.357 645.611C163.308 645.582 163.251 645.566 163.193 645.566C163.135 645.566 163.079 645.582 163.029 645.611C162.979 645.641 162.938 645.683 162.911 645.734L162.304 646.845C162.275 646.9 162.23 646.944 162.176 646.974L161.066 647.581C161.015 647.609 160.973 647.649 160.944 647.699C160.914 647.749 160.899 647.806 160.899 647.863C160.899 647.921 160.914 647.978 160.944 648.028C160.973 648.077 161.015 648.118 161.066 648.146L162.176 648.755C162.23 648.785 162.274 648.828 162.304 648.882L162.911 649.994C163.033 650.217 163.353 650.217 163.476 649.994L164.083 648.882C164.113 648.829 164.157 648.784 164.211 648.755" fill="#FCD05C"/>
</g>
<g style="mix-blend-mode:lighten">
<path fill-rule="evenodd" clip-rule="evenodd" d="M1184.55 867.692L1186.8 866.461C1186.85 866.433 1186.9 866.392 1186.92 866.343C1186.95 866.293 1186.97 866.236 1186.97 866.178C1186.97 866.12 1186.95 866.063 1186.92 866.013C1186.9 865.964 1186.85 865.923 1186.8 865.895L1184.55 864.663C1184.5 864.634 1184.46 864.59 1184.43 864.536L1183.2 862.285C1183.17 862.233 1183.13 862.191 1183.08 862.161C1183.03 862.131 1182.97 862.116 1182.91 862.116C1182.86 862.116 1182.8 862.131 1182.75 862.161C1182.7 862.191 1182.66 862.233 1182.63 862.285L1181.4 864.536C1181.37 864.59 1181.33 864.634 1181.27 864.663L1179.02 865.895C1178.97 865.923 1178.93 865.963 1178.9 866.013C1178.87 866.063 1178.86 866.12 1178.86 866.178C1178.86 866.235 1178.87 866.292 1178.9 866.342C1178.93 866.392 1178.97 866.433 1179.02 866.46L1181.27 867.692C1181.33 867.721 1181.37 867.766 1181.4 867.82L1182.63 870.07C1182.75 870.294 1183.07 870.294 1183.19 870.07L1184.43 867.818C1184.46 867.764 1184.5 867.72 1184.55 867.691" fill="#D15D64"/>
</g>
<g style="mix-blend-mode:lighten">
<path fill-rule="evenodd" clip-rule="evenodd" d="M1140.54 887.368L1141.65 886.76C1141.7 886.732 1141.74 886.692 1141.77 886.642C1141.8 886.592 1141.81 886.535 1141.81 886.478C1141.81 886.42 1141.8 886.363 1141.77 886.313C1141.74 886.264 1141.7 886.223 1141.65 886.195L1140.54 885.587C1140.48 885.558 1140.44 885.514 1140.41 885.46L1139.8 884.349C1139.77 884.298 1139.73 884.256 1139.68 884.227C1139.63 884.197 1139.58 884.182 1139.52 884.182C1139.46 884.182 1139.41 884.197 1139.36 884.227C1139.31 884.256 1139.27 884.298 1139.24 884.349L1138.63 885.46C1138.6 885.514 1138.56 885.558 1138.5 885.588L1137.39 886.197C1137.34 886.224 1137.3 886.265 1137.27 886.315C1137.24 886.365 1137.23 886.421 1137.23 886.479C1137.23 886.537 1137.24 886.594 1137.27 886.643C1137.3 886.693 1137.34 886.734 1137.39 886.762L1138.5 887.369C1138.56 887.399 1138.6 887.443 1138.63 887.497L1139.24 888.609C1139.36 888.832 1139.68 888.832 1139.8 888.609L1140.41 887.497C1140.44 887.443 1140.48 887.399 1140.54 887.369" fill="#7B63AB"/>
</g>
<path fill-rule="evenodd" clip-rule="evenodd" d="M331.51 731.096L334.411 731.822L333.687 728.918L331.51 731.096Z" stroke="#E98333" stroke-width="1.097" stroke-linecap="round" stroke-linejoin="round"/>
<g style="mix-blend-mode:lighten">
<path fill-rule="evenodd" clip-rule="evenodd" d="M422.307 608.977L423.954 608.075L422.307 607.175L421.406 605.526L420.504 607.175L418.857 608.074L420.504 608.977L421.406 610.626L422.307 608.977Z" fill="#00A959"/>
</g>
<g style="mix-blend-mode:lighten">
<path fill-rule="evenodd" clip-rule="evenodd" d="M141.29 1001.71L143.538 1000.48C143.589 1000.45 143.631 1000.41 143.661 1000.36C143.69 1000.31 143.706 1000.25 143.706 1000.19C143.706 1000.14 143.69 1000.08 143.661 1000.03C143.631 999.98 143.589 999.94 143.538 999.912L141.288 998.68C141.234 998.651 141.19 998.607 141.161 998.553L139.931 996.302C139.903 996.251 139.862 996.209 139.813 996.179C139.763 996.15 139.707 996.134 139.649 996.134C139.591 996.134 139.535 996.15 139.485 996.179C139.436 996.209 139.395 996.251 139.367 996.302L138.137 998.554C138.107 998.608 138.061 998.653 138.006 998.682L135.76 999.913C135.709 999.941 135.667 999.982 135.638 1000.03C135.608 1000.08 135.593 1000.14 135.593 1000.2C135.593 1000.25 135.608 1000.31 135.638 1000.36C135.667 1000.41 135.709 1000.45 135.76 1000.48L138.008 1001.71C138.062 1001.74 138.106 1001.78 138.136 1001.84L139.367 1004.09C139.49 1004.31 139.808 1004.31 139.931 1004.09L141.161 1001.84C141.19 1001.78 141.234 1001.74 141.288 1001.71" fill="#E98333"/>
</g>
<g style="mix-blend-mode:lighten">
<path fill-rule="evenodd" clip-rule="evenodd" d="M240.745 1083.49C240.745 1082.86 240.494 1082.26 240.049 1081.81C239.604 1081.37 239 1081.12 238.37 1081.12C237.741 1081.12 237.137 1081.37 236.692 1081.82C236.247 1082.26 235.998 1082.87 235.998 1083.5C235.998 1084.13 236.249 1084.73 236.694 1085.18C237.14 1085.62 237.744 1085.87 238.373 1085.87C239.003 1085.87 239.606 1085.62 240.051 1085.17C240.496 1084.73 240.745 1084.12 240.745 1083.49" fill="#D15D64"/>
</g>
<path fill-rule="evenodd" clip-rule="evenodd" d="M37.5183 959.55L36.8268 960.857C36.7934 960.92 36.7423 960.971 36.6799 961.005L35.3738 961.697C35.3167 961.728 35.2689 961.773 35.2355 961.828C35.2022 961.883 35.1846 961.947 35.1846 962.011C35.1846 962.076 35.2022 962.139 35.2355 962.195C35.2689 962.25 35.3167 962.295 35.3738 962.325L36.6799 963.017C36.7419 963.05 36.7942 963.102 36.8268 963.164L37.5183 964.472C37.6513 964.725 38.0121 964.725 38.1468 964.472L38.8366 963.164C38.8701 963.102 38.9212 963.051 38.9836 963.017L40.2897 962.325C40.3468 962.295 40.3946 962.25 40.4279 962.195C40.4613 962.139 40.4789 962.076 40.4789 962.011C40.4789 961.947 40.4613 961.883 40.4279 961.828C40.3946 961.773 40.3468 961.728 40.2897 961.697L38.9836 961.005C38.9211 960.972 38.8699 960.921 38.8366 960.858L38.146 959.551C38.1159 959.494 38.0707 959.445 38.0153 959.412C37.9599 959.379 37.8964 959.361 37.8317 959.361C37.767 959.361 37.7035 959.379 37.6481 959.412C37.5928 959.445 37.5476 959.494 37.5174 959.551L37.5183 959.55Z" stroke="#7B63AB" stroke-width="1.097" stroke-linecap="round" stroke-linejoin="round"/>
<g style="mix-blend-mode:lighten">
<path fill-rule="evenodd" clip-rule="evenodd" d="M1376.39 907.733L1378.64 906.503C1378.69 906.475 1378.73 906.434 1378.76 906.384C1378.79 906.334 1378.81 906.277 1378.81 906.219C1378.81 906.161 1378.79 906.105 1378.76 906.055C1378.73 906.005 1378.69 905.964 1378.64 905.936L1376.39 904.705C1376.34 904.675 1376.29 904.631 1376.26 904.577L1375.03 902.326C1375.01 902.275 1374.97 902.232 1374.92 902.202C1374.87 902.173 1374.81 902.157 1374.75 902.157C1374.69 902.157 1374.64 902.173 1374.59 902.202C1374.54 902.232 1374.5 902.275 1374.47 902.326L1373.24 904.577C1373.21 904.632 1373.16 904.676 1373.11 904.705L1370.86 905.936C1370.81 905.964 1370.77 906.005 1370.74 906.055C1370.71 906.104 1370.69 906.161 1370.69 906.219C1370.69 906.277 1370.71 906.334 1370.74 906.383C1370.77 906.433 1370.81 906.474 1370.86 906.502L1373.11 907.733C1373.16 907.762 1373.21 907.807 1373.24 907.861L1374.47 910.111C1374.59 910.335 1374.91 910.335 1375.03 910.111L1376.26 907.86C1376.29 907.806 1376.34 907.762 1376.39 907.732" fill="#D15D64"/>
</g>
<g style="mix-blend-mode:lighten">
<path fill-rule="evenodd" clip-rule="evenodd" d="M1332.37 944.57L1333.48 943.963C1333.53 943.935 1333.58 943.894 1333.61 943.844C1333.63 943.794 1333.65 943.738 1333.65 943.68C1333.65 943.622 1333.63 943.565 1333.61 943.516C1333.58 943.466 1333.53 943.425 1333.48 943.397L1332.37 942.789C1332.32 942.76 1332.28 942.716 1332.25 942.662L1331.64 941.551C1331.61 941.501 1331.57 941.458 1331.52 941.429C1331.47 941.4 1331.41 941.384 1331.36 941.384C1331.3 941.384 1331.24 941.4 1331.19 941.429C1331.14 941.458 1331.1 941.501 1331.07 941.551L1330.47 942.662C1330.44 942.716 1330.39 942.761 1330.34 942.79L1329.23 943.399C1329.18 943.427 1329.14 943.468 1329.11 943.517C1329.08 943.567 1329.06 943.624 1329.06 943.681C1329.06 943.739 1329.08 943.796 1329.11 943.846C1329.14 943.895 1329.18 943.936 1329.23 943.964L1330.34 944.571C1330.39 944.601 1330.44 944.645 1330.47 944.7L1331.07 945.811C1331.2 946.034 1331.52 946.034 1331.64 945.811L1332.25 944.7C1332.28 944.646 1332.32 944.601 1332.37 944.571" fill="#7B63AB"/>
</g>
<g style="mix-blend-mode:lighten">
<path fill-rule="evenodd" clip-rule="evenodd" d="M1311.82 1102.96L1312.88 1102.38C1312.93 1102.35 1312.97 1102.31 1313 1102.27C1313.02 1102.22 1313.04 1102.16 1313.04 1102.11C1313.04 1102.05 1313.02 1102 1313 1101.95C1312.97 1101.91 1312.93 1101.87 1312.88 1101.84L1311.82 1101.26C1311.77 1101.23 1311.72 1101.19 1311.7 1101.14L1311.12 1100.07C1311.09 1100.02 1311.05 1099.98 1311 1099.96C1310.96 1099.93 1310.9 1099.91 1310.85 1099.91C1310.79 1099.91 1310.74 1099.93 1310.69 1099.96C1310.64 1099.98 1310.6 1100.02 1310.58 1100.07L1310 1101.14C1309.97 1101.19 1309.93 1101.23 1309.87 1101.26L1308.81 1101.84C1308.76 1101.86 1308.72 1101.9 1308.69 1101.95C1308.67 1102 1308.65 1102.05 1308.65 1102.11C1308.65 1102.16 1308.67 1102.22 1308.69 1102.27C1308.72 1102.31 1308.76 1102.35 1308.81 1102.38L1309.87 1102.96C1309.92 1102.99 1309.97 1103.03 1310 1103.08L1310.58 1104.14C1310.6 1104.19 1310.64 1104.23 1310.69 1104.26C1310.74 1104.29 1310.79 1104.31 1310.85 1104.31C1310.9 1104.31 1310.96 1104.29 1311 1104.26C1311.05 1104.23 1311.09 1104.19 1311.12 1104.14L1311.7 1103.08C1311.72 1103.03 1311.77 1102.99 1311.82 1102.96" fill="#D15D64"/>
</g>
<g style="mix-blend-mode:lighten">
<path fill-rule="evenodd" clip-rule="evenodd" d="M1353.6 1021.38L1354.71 1020.78C1354.76 1020.75 1354.8 1020.71 1354.83 1020.66C1354.86 1020.61 1354.87 1020.55 1354.87 1020.49C1354.87 1020.44 1354.86 1020.38 1354.83 1020.33C1354.8 1020.28 1354.76 1020.24 1354.71 1020.21L1353.6 1019.6C1353.54 1019.57 1353.5 1019.53 1353.47 1019.48L1352.86 1018.36C1352.84 1018.31 1352.8 1018.27 1352.75 1018.24C1352.7 1018.21 1352.64 1018.2 1352.58 1018.2C1352.52 1018.2 1352.47 1018.21 1352.42 1018.24C1352.37 1018.27 1352.33 1018.31 1352.3 1018.36L1351.69 1019.48C1351.66 1019.53 1351.62 1019.57 1351.56 1019.6L1350.45 1020.21C1350.4 1020.24 1350.36 1020.28 1350.33 1020.33C1350.3 1020.38 1350.29 1020.44 1350.29 1020.49C1350.29 1020.55 1350.3 1020.61 1350.33 1020.66C1350.36 1020.71 1350.4 1020.75 1350.45 1020.78L1351.56 1021.38C1351.62 1021.42 1351.66 1021.46 1351.69 1021.51L1352.3 1022.62C1352.42 1022.85 1352.74 1022.85 1352.86 1022.62L1353.47 1021.51C1353.5 1021.46 1353.55 1021.42 1353.6 1021.39" fill="#FCD05C"/>
</g>
<mask id="mask2_40_232" style="mask-type:alpha" maskUnits="userSpaceOnUse" x="1292" y="801" width="5" height="5">
<path d="M1296.6 805.677V801.082H1292.01V805.678H1296.6V805.677Z" fill="white"/>
</mask>
<g mask="url(#mask2_40_232)">
<path fill-rule="evenodd" clip-rule="evenodd" d="M1295.32 804.269L1296.43 803.662C1296.48 803.634 1296.52 803.593 1296.55 803.544C1296.58 803.494 1296.6 803.437 1296.6 803.379C1296.6 803.321 1296.58 803.265 1296.55 803.215C1296.52 803.165 1296.48 803.124 1296.43 803.097L1295.32 802.489C1295.27 802.46 1295.22 802.416 1295.19 802.362L1294.59 801.251C1294.56 801.2 1294.52 801.157 1294.47 801.128C1294.42 801.098 1294.36 801.083 1294.3 801.083C1294.24 801.083 1294.19 801.098 1294.14 801.128C1294.09 801.157 1294.05 801.2 1294.02 801.251L1293.41 802.362C1293.38 802.415 1293.34 802.46 1293.29 802.489L1292.18 803.097C1292.13 803.124 1292.08 803.165 1292.05 803.215C1292.02 803.265 1292.01 803.322 1292.01 803.379C1292.01 803.437 1292.02 803.494 1292.05 803.543C1292.08 803.593 1292.13 803.634 1292.18 803.662L1293.29 804.27C1293.34 804.3 1293.38 804.344 1293.41 804.398L1294.02 805.51C1294.05 805.56 1294.09 805.603 1294.14 805.632C1294.19 805.662 1294.25 805.678 1294.3 805.678C1294.36 805.678 1294.42 805.662 1294.47 805.632C1294.52 805.603 1294.56 805.56 1294.59 805.51L1295.19 804.398C1295.22 804.344 1295.27 804.3 1295.32 804.271" fill="#7B63AB"/>
</g>
<path fill-rule="evenodd" clip-rule="evenodd" d="M946.204 747.713L948.473 745.441L946.204 747.713ZM939.673 754.25L941.943 751.978L939.673 754.25ZM944.251 746.002C944.251 745.187 939.775 749.668 940.588 749.668C939.775 749.668 944.251 754.149 944.251 753.334C944.251 754.148 948.727 749.667 947.913 749.667C948.727 749.667 944.251 745.186 944.251 746.001L944.251 746.002Z" stroke="#7B63AB" stroke-width="1.097" stroke-linecap="round" stroke-linejoin="round"/>
<g style="mix-blend-mode:lighten">
<path fill-rule="evenodd" clip-rule="evenodd" d="M1126.59 629.895L1128.84 628.663C1128.89 628.635 1128.94 628.595 1128.97 628.545C1129 628.495 1129.01 628.438 1129.01 628.38C1129.01 628.322 1129 628.266 1128.97 628.216C1128.94 628.166 1128.89 628.125 1128.84 628.098L1126.59 626.867C1126.54 626.838 1126.5 626.793 1126.47 626.739L1125.24 624.488C1125.21 624.437 1125.17 624.394 1125.12 624.365C1125.07 624.335 1125.01 624.319 1124.95 624.319C1124.9 624.319 1124.84 624.335 1124.79 624.365C1124.74 624.394 1124.7 624.437 1124.67 624.488L1123.44 626.739C1123.41 626.794 1123.37 626.839 1123.31 626.868L1121.07 628.099C1121.01 628.127 1120.97 628.168 1120.94 628.217C1120.91 628.267 1120.9 628.323 1120.9 628.381C1120.9 628.439 1120.91 628.495 1120.94 628.545C1120.97 628.595 1121.01 628.635 1121.07 628.663L1123.31 629.895C1123.37 629.925 1123.41 629.969 1123.44 630.024L1124.67 632.274C1124.79 632.498 1125.11 632.498 1125.23 632.274L1126.47 630.023C1126.5 629.968 1126.54 629.923 1126.6 629.894" fill="#FCD05C"/>
</g>
<g style="mix-blend-mode:lighten">
<path fill-rule="evenodd" clip-rule="evenodd" d="M1035.9 786.714L1036.96 786.134C1037.01 786.107 1037.05 786.068 1037.08 786.021C1037.1 785.973 1037.12 785.919 1037.12 785.864C1037.12 785.809 1037.1 785.755 1037.08 785.708C1037.05 785.66 1037.01 785.621 1036.96 785.595L1035.9 785.013C1035.85 784.984 1035.81 784.942 1035.78 784.89L1035.2 783.828C1035.17 783.78 1035.13 783.739 1035.08 783.711C1035.04 783.683 1034.98 783.669 1034.93 783.669C1034.87 783.669 1034.82 783.683 1034.77 783.711C1034.72 783.739 1034.69 783.78 1034.66 783.828L1034.08 784.89C1034.05 784.942 1034.01 784.984 1033.96 785.013L1032.89 785.593C1032.85 785.619 1032.8 785.659 1032.78 785.706C1032.75 785.754 1032.73 785.808 1032.73 785.863C1032.73 785.919 1032.75 785.973 1032.78 786.021C1032.8 786.068 1032.85 786.107 1032.89 786.134L1033.96 786.714C1034.01 786.743 1034.05 786.785 1034.08 786.837L1034.66 787.899C1034.68 787.948 1034.72 787.989 1034.77 788.017C1034.82 788.045 1034.87 788.06 1034.93 788.06C1034.98 788.06 1035.04 788.045 1035.08 788.017C1035.13 787.989 1035.17 787.948 1035.2 787.899L1035.78 786.837C1035.81 786.785 1035.85 786.743 1035.9 786.714" fill="#D15D64"/>
</g>
<g style="mix-blend-mode:lighten">
<path fill-rule="evenodd" clip-rule="evenodd" d="M1215.64 714.127L1216.75 713.519C1216.8 713.491 1216.84 713.45 1216.87 713.4C1216.9 713.351 1216.92 713.294 1216.92 713.236C1216.92 713.179 1216.9 713.122 1216.87 713.072C1216.84 713.022 1216.8 712.981 1216.75 712.954L1215.64 712.346C1215.58 712.317 1215.54 712.272 1215.51 712.219L1214.9 711.108C1214.88 711.057 1214.84 711.014 1214.79 710.985C1214.74 710.955 1214.68 710.94 1214.62 710.94C1214.56 710.94 1214.51 710.955 1214.46 710.985C1214.41 711.014 1214.37 711.057 1214.34 711.108L1213.73 712.219C1213.7 712.273 1213.66 712.318 1213.6 712.348L1212.49 712.954C1212.44 712.982 1212.4 713.023 1212.37 713.073C1212.34 713.123 1212.33 713.179 1212.33 713.237C1212.33 713.295 1212.34 713.352 1212.37 713.401C1212.4 713.451 1212.44 713.492 1212.49 713.52L1213.6 714.129C1213.66 714.159 1213.7 714.202 1213.73 714.256L1214.34 715.367C1214.46 715.591 1214.78 715.591 1214.9 715.367L1215.51 714.256C1215.54 714.202 1215.59 714.158 1215.64 714.129" fill="#FCD05C"/>
</g>
<path fill-rule="evenodd" clip-rule="evenodd" d="M1393.55 663.544L1394.99 663.987L1396.43 663.544L1395.98 664.984L1396.43 666.424L1394.99 665.98L1393.55 666.424L1393.99 664.985L1393.55 663.544Z" stroke="#00A959" stroke-width="1.097" stroke-linecap="round" stroke-linejoin="round"/>
<path fill-rule="evenodd" clip-rule="evenodd" d="M53.5283 589.181L52.3267 587.98L53.5283 589.181ZM56.792 592.45L55.592 591.249L56.792 592.45ZM53.5863 589.048C53.8699 588.764 54.2545 588.605 54.6556 588.605C55.0567 588.605 55.4414 588.764 55.725 589.048C56.0087 589.332 56.168 589.717 56.168 590.119C56.168 590.52 56.0087 590.905 55.725 591.189C55.4414 591.473 55.0567 591.633 54.6556 591.633C54.2545 591.633 53.8699 591.473 53.5863 591.189C53.3026 590.905 53.1433 590.52 53.1433 590.119C53.1433 589.717 53.3026 589.332 53.5863 589.048Z" stroke="#E98333" stroke-width="1.097" stroke-linecap="round" stroke-linejoin="round"/>
<g opacity="0.5">
<path opacity="0.5" fill-rule="evenodd" clip-rule="evenodd" d="M300.691 361.834C304.198 364.786 304.651 370.025 301.701 373.536C300.717 374.707 299.429 375.583 297.98 376.068C296.53 376.552 294.974 376.626 293.485 376.282C292.543 377.633 292.007 379.029 292.26 380.307C292.389 380.958 291.953 380.895 291.727 380.601C290.594 379.129 289.282 376.816 289.374 373.951C286.46 370.929 286.241 366.131 289.001 362.846C291.95 359.334 297.184 358.882 300.691 361.834" fill="#DBE7F0"/>
<path opacity="0.5" fill-rule="evenodd" clip-rule="evenodd" d="M298.294 367.219H297.302L297.312 366.737C297.312 366.1 296.738 364.273 295.84 364.273C295.554 364.273 295.266 364.42 295.075 364.649C294.991 364.742 294.929 364.853 294.893 364.973C294.857 365.093 294.849 365.22 294.869 365.344C294.992 366.071 295.006 366.463 294.559 366.954C294.069 367.489 293.833 367.714 293.387 367.714H292.405C291.885 367.71 291.425 368.171 291.425 368.693V370.657C291.425 371.178 291.885 371.639 292.405 371.639H293.249L293.957 372.062C294.034 372.107 294.122 372.13 294.211 372.13H297.316C297.871 372.13 298.709 371.885 298.787 371.207L299.269 368.286C299.278 368.246 299.278 368.217 299.278 368.188C299.262 367.612 298.866 367.22 298.297 367.22H298.292L298.294 367.219ZM298.294 371.148C298.269 371.486 297.669 371.638 297.312 371.638H294.207L293.387 371.148V368.201C294.054 368.201 294.422 367.833 294.922 367.277C295.526 366.61 295.482 366.019 295.354 365.249C295.315 365.004 295.599 364.759 295.844 364.759C296.252 364.759 296.825 366.099 296.825 366.722L296.815 367.229C296.815 367.568 296.979 367.705 297.316 367.705H298.297C298.607 367.705 298.779 367.883 298.787 368.196L298.297 371.143L298.292 371.148H298.294Z" fill="#27363A"/>
<path opacity="0.5" fill-rule="evenodd" clip-rule="evenodd" d="M322.99 395.178C322.99 391.489 321.71 388.101 319.572 385.429C317.844 383.613 315.954 384.747 315.434 393.217C314.808 403.376 309.466 396.592 305.208 401.376C300.961 406.152 291.071 397.469 293.625 402.545C296.253 407.456 301.429 410.798 307.385 410.798C316.003 410.798 322.99 403.805 322.99 395.178Z" fill="#4D595D"/>
<path opacity="0.5" fill-rule="evenodd" clip-rule="evenodd" d="M307.385 379.559C316.003 379.559 322.989 386.552 322.989 395.178C322.989 403.805 316.003 410.798 307.386 410.798C298.768 410.798 291.782 403.805 291.782 395.178C291.782 386.552 298.768 379.559 307.386 379.559H307.385Z" stroke="#DBE7F0" stroke-width="1.097" stroke-linecap="round" stroke-linejoin="round"/>
<path opacity="0.5" fill-rule="evenodd" clip-rule="evenodd" d="M307.385 379.559C316.003 379.559 322.989 386.552 322.989 395.178C322.989 403.805 316.003 410.798 307.386 410.798C298.768 410.798 291.782 403.805 291.782 395.178C291.782 386.552 298.768 379.559 307.386 379.559H307.385Z" stroke="#DBE7F0" stroke-width="1.097" stroke-linecap="round" stroke-linejoin="round"/>
<path opacity="0.5" d="M301.333 409.58C302.456 406.703 304.751 402.661 309.212 400.385C314.543 397.667 318.362 399.919 322.318 399.72M293.012 389.088C296 390.4 299.641 391.66 302.606 391.66C308.791 391.66 310.198 387.86 317.506 387.72C318.824 387.695 320.012 387.679 321.07 387.671L293.012 389.088Z" stroke="#DBE7F0" stroke-width="1.097" stroke-linecap="round" stroke-linejoin="round"/>
<path opacity="0.5" d="M303.354 410.272C306.064 407.393 312.701 401.569 320.576 403.525H320.577M294.25 403.614C296.656 403.284 300.612 402.24 303.871 398.978C308.932 393.911 310.336 393.772 313.43 393.772C315.963 393.772 319.724 396.415 322.932 396.521L294.25 403.614ZM301.083 380.884C304.332 381.387 308.256 382.406 310.759 384.483C312.714 386.105 316.088 385.993 319.448 385.27L301.083 380.884ZM297.849 382.814C299.047 383.074 300.15 383.356 300.866 383.588C303.231 384.353 305.318 384.632 304.715 386.312C303.95 388.445 300.41 387.241 298.046 386.475C297.27 386.225 296.301 385.764 295.352 385.235L297.849 382.814ZM291.884 393.383C295.004 393.829 299.349 394.88 299.794 397.289C300.101 398.956 296.652 399.891 292.681 400.417L291.884 393.383Z" stroke="#DBE7F0" stroke-width="1.097" stroke-linecap="round" stroke-linejoin="round"/>
</g>
<g opacity="0.5">
<path opacity="0.5" fill-rule="evenodd" clip-rule="evenodd" d="M1246.7 247.139C1213.61 203.989 1210.79 279.135 1146.68 266.509C1164.65 289.317 1192.5 303.96 1223.77 303.96C1277.95 303.96 1321.87 259.992 1321.87 205.753C1321.87 173.594 1306.43 145.05 1282.57 127.135L1278.45 128.773C1296.44 151.013 1262.62 267.893 1246.7 247.138" fill="#4D595D"/>
<path opacity="0.5" d="M1207.22 108.942C1213.43 107.88 1219.72 107.423 1226.02 107.575M1125.66 204.23C1125.75 197.817 1126.47 191.354 1127.86 184.931L1125.66 204.23ZM1162.44 282.202C1160.03 280.269 1157.7 278.221 1155.48 276.065L1162.44 282.202ZM1256.29 298.026C1248.22 300.891 1239.8 302.685 1231.27 303.365L1256.29 298.026ZM1316.25 173.813C1317.52 177.49 1318.56 181.246 1319.38 185.058L1316.25 173.813ZM1288.13 131.816C1291.07 134.39 1293.85 137.14 1296.46 140.049L1288.13 131.816Z" stroke="#DBE7F0" stroke-width="1.097" stroke-linecap="round" stroke-linejoin="round"/>
<path opacity="0.5" fill-rule="evenodd" clip-rule="evenodd" d="M1162.71 283.891C1166.4 287.15 1170.84 290.194 1176.28 292.75C1176.51 292.856 1176.69 293.019 1176.83 293.229C1177.43 294.148 1179.61 296.494 1180.3 297.231C1180.45 297.385 1180.62 297.495 1180.81 297.566L1188.03 300.196C1188.24 300.273 1188.42 300.4 1188.57 300.567L1193.25 305.842C1193.56 306.188 1194.03 306.348 1194.48 306.269L1199.42 305.399C1199.6 305.366 1199.78 305.371 1199.95 305.413L1203.45 306.212C1203.63 306.253 1203.81 306.257 1203.99 306.222L1208.04 305.453C1208.22 305.421 1208.39 305.422 1208.56 305.457L1216.33 307.08C1216.61 307.138 1216.91 307.104 1217.17 306.981L1221.26 305.086C1221.44 305.006 1221.63 304.961 1221.83 304.961L1228.31 304.968C1228.56 304.968 1228.81 304.898 1229.02 304.765L1233.11 302.216C1233.97 301.676 1233.56 300.344 1232.54 300.384L1229.38 300.505C1229.17 300.513 1228.95 300.469 1228.76 300.375L1221.03 296.692C1220.76 296.561 1220.44 296.529 1220.14 296.603L1215.76 297.678C1215.46 297.752 1215.13 297.719 1214.85 297.577L1202.35 291.379C1202.22 291.319 1202.09 291.277 1201.95 291.257L1191.94 289.749C1191.72 289.718 1191.51 289.632 1191.34 289.5L1183.21 283.427C1182.97 283.247 1182.68 283.153 1182.38 283.16L1172.85 283.385C1172.75 283.387 1172.65 283.378 1172.55 283.358L1163.86 281.572C1162.52 281.295 1161.68 282.985 1162.71 283.892" fill="#27363A"/>
<path opacity="0.5" fill-rule="evenodd" clip-rule="evenodd" d="M1162.71 283.891C1166.4 287.15 1170.84 290.194 1176.28 292.75C1176.51 292.856 1176.69 293.019 1176.83 293.229C1177.43 294.148 1179.61 296.494 1180.3 297.231C1180.45 297.385 1180.62 297.495 1180.81 297.566L1188.03 300.196C1188.24 300.273 1188.42 300.4 1188.57 300.567L1193.25 305.842C1193.56 306.188 1194.03 306.348 1194.48 306.269L1199.42 305.399C1199.6 305.366 1199.78 305.371 1199.95 305.413L1203.45 306.212C1203.63 306.253 1203.81 306.257 1203.99 306.222L1208.04 305.453C1208.22 305.421 1208.39 305.422 1208.56 305.457L1216.33 307.08C1216.61 307.138 1216.91 307.104 1217.17 306.981L1221.26 305.086C1221.44 305.006 1221.63 304.961 1221.83 304.961L1228.31 304.968C1228.56 304.968 1228.81 304.898 1229.02 304.765L1233.11 302.216C1233.97 301.676 1233.56 300.344 1232.54 300.384L1229.38 300.505C1229.17 300.513 1228.95 300.469 1228.76 300.375L1221.03 296.692C1220.76 296.561 1220.44 296.529 1220.14 296.603L1215.76 297.678C1215.46 297.752 1215.13 297.719 1214.85 297.577L1202.35 291.379C1202.22 291.319 1202.09 291.277 1201.95 291.257L1191.94 289.749C1191.72 289.718 1191.51 289.632 1191.34 289.5L1183.21 283.427C1182.97 283.247 1182.68 283.153 1182.38 283.16L1172.85 283.385C1172.75 283.387 1172.65 283.378 1172.55 283.358L1163.86 281.572C1162.52 281.295 1161.68 282.985 1162.71 283.892V283.891Z" stroke="#DBE7F0" stroke-width="1.097" stroke-linecap="round" stroke-linejoin="round"/>
<path opacity="0.5" fill-rule="evenodd" clip-rule="evenodd" d="M1298.65 140.276C1305.58 148.121 1314.75 161.663 1317.34 172.309C1317.39 172.527 1317.39 172.755 1317.33 172.971C1317.27 173.187 1317.16 173.385 1317 173.545C1313.98 176.731 1299.51 190.104 1297.98 191.523C1297.88 191.613 1297.78 191.674 1297.67 191.731L1289.07 195.935C1288.97 195.986 1288.86 196.025 1288.75 196.045L1284.24 196.948C1283.9 197.015 1283.6 197.212 1283.41 197.495L1278.07 205.119C1277.68 205.682 1276.92 205.856 1276.33 205.523L1256.37 194.426C1256.19 194.327 1256.04 194.188 1255.92 194.021C1255.81 193.853 1255.73 193.661 1255.7 193.46L1253.17 177.085C1253.13 176.815 1253.17 176.539 1253.29 176.293C1253.41 176.048 1253.6 175.845 1253.84 175.711L1266.8 168.471C1267.13 168.289 1267.36 167.984 1267.45 167.626L1272.95 145.533C1273.01 145.287 1273.14 145.063 1273.32 144.888C1273.5 144.713 1273.73 144.594 1273.98 144.545L1297.39 139.862C1297.62 139.814 1297.86 139.827 1298.08 139.9C1298.3 139.973 1298.5 140.103 1298.65 140.277" fill="#27363A"/>
<path opacity="0.5" fill-rule="evenodd" clip-rule="evenodd" d="M1298.65 140.276C1305.58 148.121 1314.75 161.663 1317.34 172.309C1317.39 172.527 1317.39 172.755 1317.33 172.971C1317.27 173.187 1317.16 173.385 1317 173.545C1313.98 176.731 1299.51 190.104 1297.98 191.523C1297.88 191.613 1297.78 191.674 1297.67 191.731L1289.07 195.935C1288.97 195.986 1288.86 196.025 1288.75 196.045L1284.24 196.948C1283.9 197.015 1283.6 197.212 1283.41 197.495L1278.07 205.119C1277.68 205.682 1276.92 205.856 1276.33 205.523L1256.37 194.426C1256.19 194.327 1256.04 194.188 1255.92 194.021C1255.81 193.853 1255.73 193.661 1255.7 193.46L1253.17 177.085C1253.13 176.815 1253.17 176.539 1253.29 176.293C1253.41 176.048 1253.6 175.845 1253.84 175.711L1266.8 168.471C1267.13 168.289 1267.36 167.984 1267.45 167.626L1272.95 145.533C1273.01 145.287 1273.14 145.063 1273.32 144.888C1273.5 144.713 1273.73 144.594 1273.98 144.545L1297.39 139.862C1297.62 139.814 1297.86 139.827 1298.08 139.9C1298.3 139.973 1298.5 140.103 1298.65 140.277V140.276Z" stroke="#DBE7F0" stroke-width="1.097" stroke-linecap="round" stroke-linejoin="round"/>
<path opacity="0.5" fill-rule="evenodd" clip-rule="evenodd" d="M1125.66 226.715C1124.14 219.678 1123.44 212.49 1123.56 205.293C1123.58 204.174 1124.91 203.585 1125.76 204.305L1132.22 209.727C1132.5 209.964 1132.86 210.073 1133.23 210.032L1143.76 208.839C1144.06 208.806 1144.36 208.876 1144.62 209.035L1157.57 217.152C1157.71 217.238 1157.86 217.299 1158.02 217.332L1171.23 219.975C1171.54 220.038 1171.85 219.99 1172.13 219.842L1183.53 213.684C1183.79 213.541 1184.1 213.491 1184.39 213.544C1184.69 213.596 1184.96 213.747 1185.16 213.972L1193.45 223.292C1193.65 223.512 1193.77 223.795 1193.79 224.092L1195.32 246.821C1195.34 247.231 1195.18 247.63 1194.88 247.905L1183.93 257.837C1183.74 258.007 1183.61 258.225 1183.54 258.468L1180.38 269.798C1180.31 270.047 1180.17 270.271 1179.97 270.442C1179.78 270.613 1179.54 270.724 1179.28 270.762L1165.48 272.77C1165.36 272.788 1165.23 272.788 1165.1 272.77L1159.24 271.913C1158.98 271.874 1158.72 271.913 1158.48 272.026C1158.24 272.14 1158.04 272.322 1157.91 272.549C1157.46 273.294 1156.77 274.453 1156.2 275.409C1156.1 275.58 1155.96 275.725 1155.8 275.836C1155.63 275.947 1155.45 276.019 1155.25 276.049C1155.05 276.079 1154.85 276.065 1154.66 276.008C1154.47 275.951 1154.3 275.852 1154.15 275.72C1148.06 270.222 1142.9 264.171 1138.66 257.726H1156.32C1162.05 257.726 1153.46 254.731 1147.35 255.121C1146.54 255.173 1145.71 255.225 1144.87 255.275C1144.66 253.278 1142.54 249.925 1137.83 249.871C1138.17 249.384 1138.48 248.875 1138.76 248.349C1147.99 232.977 1135.89 224.99 1125.66 226.717V226.715Z" fill="#27363A"/>
<path opacity="0.5" fill-rule="evenodd" clip-rule="evenodd" d="M1138.66 257.723C1142.9 264.168 1148.06 270.218 1154.15 275.717C1154.3 275.85 1154.47 275.948 1154.66 276.005C1154.85 276.062 1155.05 276.076 1155.25 276.046C1155.45 276.017 1155.63 275.944 1155.8 275.833C1155.96 275.723 1156.1 275.577 1156.2 275.407C1156.77 274.451 1157.46 273.292 1157.9 272.547C1158.04 272.319 1158.24 272.137 1158.48 272.024C1158.71 271.911 1158.98 271.871 1159.24 271.911L1165.1 272.767C1165.22 272.786 1165.36 272.786 1165.48 272.767L1179.28 270.759C1179.54 270.721 1179.78 270.61 1179.97 270.439C1180.17 270.268 1180.31 270.044 1180.38 269.794L1183.54 258.466C1183.61 258.223 1183.74 258.004 1183.93 257.834L1194.88 247.902C1195.18 247.628 1195.34 247.229 1195.31 246.82L1193.79 224.092C1193.77 223.795 1193.65 223.513 1193.45 223.292L1185.16 213.971C1184.96 213.746 1184.69 213.596 1184.39 213.544C1184.09 213.492 1183.79 213.542 1183.52 213.685L1172.13 219.842C1171.85 219.989 1171.53 220.038 1171.23 219.976L1158.02 217.334C1157.86 217.3 1157.71 217.239 1157.57 217.154L1144.61 209.037C1144.36 208.878 1144.06 208.809 1143.76 208.841L1133.23 210.034C1133.05 210.054 1132.86 210.037 1132.69 209.985C1132.52 209.933 1132.36 209.846 1132.22 209.729L1125.76 204.306C1124.91 203.587 1123.57 204.175 1123.56 205.295C1123.44 212.497 1124.14 219.69 1125.66 226.732L1138.66 257.723ZM1205.67 107.755C1172.78 113.434 1136.69 138.668 1126.81 183.49C1126.6 184.443 1127.46 185.298 1128.41 185.092C1129.4 184.877 1130.53 184.61 1131.26 184.432C1131.5 184.374 1131.74 184.382 1131.97 184.453C1132.2 184.525 1132.41 184.657 1132.57 184.837L1139.93 193.017C1140.25 193.372 1140.73 193.529 1141.2 193.43L1160.34 189.347C1160.67 189.276 1160.96 189.088 1161.15 188.818L1173.13 172.125C1173.3 171.877 1173.39 171.577 1173.37 171.273C1173.36 170.968 1173.24 170.679 1173.04 170.452L1166.88 163.583C1166.75 163.431 1166.65 163.249 1166.59 163.052C1166.54 162.855 1166.53 162.648 1166.57 162.447L1168.55 151.64C1168.63 151.21 1168.91 150.844 1169.31 150.664L1180.93 145.38C1181.12 145.29 1181.34 145.25 1181.56 145.262C1181.77 145.274 1181.98 145.338 1182.17 145.449C1182.35 145.56 1182.51 145.714 1182.62 145.898C1182.73 146.083 1182.8 146.292 1182.82 146.508L1183.42 155.597C1183.45 155.932 1183.59 156.246 1183.84 156.48L1199.71 171.533C1200.05 171.85 1200.52 171.972 1200.97 171.855L1214.48 168.288C1214.61 168.253 1214.75 168.239 1214.88 168.245C1216.63 168.327 1229.11 168.894 1229.29 168.455C1229.46 168.026 1230.67 155.42 1230.89 153.186C1230.91 152.962 1230.99 152.747 1231.12 152.563L1238.88 141.388C1239.05 141.147 1239.13 140.858 1239.12 140.565C1239.11 140.272 1239 139.991 1238.81 139.766L1225.65 123.998C1225.5 123.825 1225.32 123.692 1225.11 123.61L1208.9 117.285C1208.68 117.2 1208.48 117.056 1208.33 116.868C1208.19 116.681 1208.09 116.457 1208.06 116.221C1207.85 114.655 1207.4 111.091 1207.22 108.972C1207.21 108.787 1207.16 108.607 1207.07 108.443C1206.98 108.279 1206.86 108.135 1206.71 108.02C1206.57 107.906 1206.4 107.823 1206.22 107.777C1206.04 107.732 1205.85 107.724 1205.67 107.755H1205.67Z" stroke="#DBE7F0" stroke-width="1.097" stroke-linecap="round" stroke-linejoin="round"/>
<path opacity="0.5" fill-rule="evenodd" clip-rule="evenodd" d="M1318.73 185.73L1314.77 194.789C1314.61 195.151 1314.3 195.423 1313.92 195.536L1303.98 198.498C1303.75 198.566 1303.54 198.695 1303.38 198.871L1294.45 208.54C1294.19 208.829 1294.06 209.223 1294.11 209.614L1295.8 223.142C1295.85 223.521 1295.73 223.902 1295.48 224.188L1287.95 232.828C1287.82 232.977 1287.66 233.095 1287.48 233.174C1287.3 233.253 1287.1 233.291 1286.91 233.286L1273.56 232.934C1273.22 232.925 1272.88 233.052 1272.62 233.288C1272.37 233.524 1272.21 233.851 1272.19 234.198L1271.31 249.917C1271.31 250.079 1271.27 250.239 1271.2 250.386L1264.99 264.364C1264.92 264.529 1264.88 264.706 1264.88 264.886C1264.87 265.065 1264.91 265.244 1264.97 265.41L1269.86 277.519C1270.01 277.897 1269.99 278.325 1269.79 278.679L1263.01 290.678C1262.95 290.795 1262.87 290.894 1262.77 290.984C1262.08 291.642 1258.92 294.672 1256.66 297.008C1255.73 297.975 1256.65 299.549 1257.95 299.233C1279.3 294.112 1332.39 257.342 1321.28 186.079C1321.08 184.751 1319.27 184.502 1318.73 185.731" fill="#27363A"/>
<path opacity="0.5" fill-rule="evenodd" clip-rule="evenodd" d="M1318.73 185.73L1314.77 194.789C1314.61 195.151 1314.3 195.423 1313.92 195.536L1303.98 198.498C1303.75 198.566 1303.54 198.695 1303.38 198.871L1294.45 208.54C1294.19 208.829 1294.06 209.223 1294.11 209.614L1295.8 223.142C1295.85 223.521 1295.73 223.902 1295.48 224.188L1287.95 232.828C1287.82 232.977 1287.66 233.095 1287.48 233.174C1287.3 233.253 1287.1 233.291 1286.91 233.286L1273.56 232.934C1273.22 232.925 1272.88 233.052 1272.62 233.288C1272.37 233.524 1272.21 233.851 1272.19 234.198L1271.31 249.917C1271.31 250.079 1271.27 250.239 1271.2 250.386L1264.99 264.364C1264.92 264.529 1264.88 264.706 1264.88 264.886C1264.87 265.065 1264.91 265.244 1264.97 265.41L1269.86 277.519C1270.01 277.897 1269.99 278.325 1269.79 278.679L1263.01 290.678C1262.95 290.795 1262.87 290.894 1262.77 290.984C1262.08 291.642 1258.92 294.672 1256.66 297.008C1255.73 297.975 1256.65 299.549 1257.95 299.233C1279.3 294.112 1332.39 257.342 1321.28 186.079C1321.08 184.751 1319.27 184.502 1318.73 185.731L1318.73 185.73ZM1227.25 106.126L1238.87 105.47C1239.2 105.451 1239.51 105.55 1239.77 105.748L1241.56 107.139C1241.88 107.386 1242.3 107.476 1242.69 107.381L1249.81 105.678C1250.16 105.595 1250.53 105.656 1250.83 105.848L1253.81 107.729C1254.09 107.909 1254.43 107.975 1254.75 107.917L1259.28 107.118C1259.53 107.072 1259.78 107.102 1260.02 107.197L1261.61 107.853C1261.91 107.975 1262.15 108.201 1262.29 108.488L1263.79 111.467C1263.98 111.843 1264.33 112.107 1264.75 112.181L1267.81 112.73C1268.14 112.787 1268.42 112.959 1268.63 113.214L1270.93 116.115C1271.01 116.223 1271.11 116.317 1271.23 116.393L1276.46 119.905C1276.63 120.021 1276.77 120.166 1276.87 120.346C1277.23 120.975 1278.12 122.522 1278.34 122.707C1278.57 122.912 1286.41 129.335 1288.59 131.119C1288.82 131.307 1288.74 131.677 1288.45 131.744C1287.73 131.915 1286.64 132.164 1286.09 132.24C1285.9 132.267 1285.71 132.236 1285.53 132.152L1278.45 128.774C1278.37 128.733 1278.27 128.699 1278.18 128.676L1270.39 126.876C1270.24 126.838 1270.08 126.83 1269.92 126.851L1262.11 127.891C1261.78 127.934 1261.45 127.855 1261.18 127.668L1249.28 119.505C1249.15 119.417 1249.01 119.352 1248.86 119.314L1235.02 115.721C1234.74 115.648 1234.49 115.482 1234.31 115.251L1230.69 110.626C1230.56 110.455 1230.39 110.32 1230.19 110.231L1226.77 108.678C1225.5 108.098 1225.85 106.202 1227.25 106.124V106.126Z" stroke="#DBE7F0" stroke-width="1.097" stroke-linecap="round" stroke-linejoin="round"/>
<path opacity="0.5" fill-rule="evenodd" clip-rule="evenodd" d="M1098.27 124.866C1107.18 121.885 1116.82 126.702 1119.79 135.623C1121.89 141.896 1120.13 148.526 1115.8 152.949C1117.15 156.042 1119.02 158.471 1121.52 159.397C1122.8 159.868 1122.22 160.565 1121.46 160.647C1117.68 161.056 1112.24 160.876 1107.32 157.648C1098.93 159.517 1090.31 154.763 1087.52 146.417C1084.54 137.495 1089.36 127.847 1098.27 124.866" fill="#DBE7F0"/>
<path opacity="0.5" fill-rule="evenodd" clip-rule="evenodd" d="M1109.33 136.684C1108.77 136.008 1107.99 135.663 1106.97 135.611C1105.93 135.611 1105.16 136.062 1104.61 136.685C1104.43 136.886 1104.28 137.059 1104.16 137.206C1104.11 137.266 1104.05 137.314 1103.98 137.347C1103.91 137.38 1103.83 137.397 1103.75 137.397C1103.67 137.397 1103.6 137.38 1103.53 137.347C1103.46 137.314 1103.39 137.266 1103.34 137.206C1103.22 137.059 1103.07 136.886 1102.89 136.685C1102.33 136.062 1101.64 135.611 1100.53 135.611C1099.51 135.665 1098.72 136.02 1098.17 136.686C1097.61 137.341 1097.34 138.062 1097.31 138.835C1097.31 139.392 1097.41 140.466 1098.03 141.703C1098.63 142.893 1100.41 144.723 1103.41 147.152C1103.6 147.312 1103.89 147.312 1104.09 147.152C1107.08 144.723 1108.89 142.903 1109.48 141.703C1110.09 140.456 1110.19 139.372 1110.19 138.835C1110.17 138.062 1109.89 137.341 1109.33 136.665V136.685L1109.33 136.684Z" fill="#27363A"/>
<path opacity="0.5" fill-rule="evenodd" clip-rule="evenodd" d="M1315.8 167.444H1372.58C1381.68 167.444 1377.78 164.06 1366.33 165.102C1365.76 165.153 1365.2 165.192 1364.64 165.227C1363.35 163.836 1360.17 162.137 1357.07 163.092C1356.55 159.36 1350.36 154.873 1344.53 158.771C1344.11 152.971 1338.28 147.408 1332.13 152.358C1333.96 142.963 1331.49 132.617 1317.16 133.85C1308.34 134.61 1304.36 139.178 1303.12 144.678L1315.8 167.444ZM1147.35 255.119C1146.54 255.17 1145.71 255.223 1144.87 255.272C1144.66 253.275 1142.54 249.922 1137.83 249.868C1138.17 249.381 1138.48 248.873 1138.76 248.347C1152.29 225.821 1119.99 219.152 1114.94 235.674C1113.87 239.172 1113.43 242.591 1113.44 245.613C1111.83 244.583 1109.63 243.921 1106.63 243.921C1098.47 243.921 1095.8 251.082 1096.62 254.507C1095.15 253.588 1093.5 252.697 1089.85 253.036C1082.83 253.687 1075.8 257.724 1086.47 257.724H1156.32C1162.05 257.724 1153.46 254.728 1147.35 255.119H1147.35Z" stroke="#DBE7F0" stroke-width="1.097" stroke-linecap="round" stroke-linejoin="round"/>
</g>
</g>
<defs>
<clipPath id="clip0_40_232">
<rect width="1440" height="1104" fill="white" transform="translate(-4)"/>
</clipPath>
</defs>
</svg>
